<svg width="211" height="250" viewBox="0 0 211 250" fill="none" xmlns="http://www.w3.org/2000/svg">
    <g opacity="0.5">
        <path d="M133.353 130H103L115.647 98H146L133.353 130Z" fill="#A2E8FC"/>
        <path d="M224.647 164H195L207.353 133H237L224.647 164Z" fill="#A2E8FC"/>
        <path d="M81.3529 92H51L63.6471 60H94L81.3529 92Z" fill="#A2E8FC"/>
        <path d="M204.647 104H175L187.353 73H217L204.647 104Z" fill="#A2E8FC"/>
        <path d="M61.3529 31H31L43.6471 0H74L61.3529 31Z" fill="#A2E8FC"/>
        <path d="M173.353 198H143L155.647 167H186L173.353 198Z" fill="#A2E8FC"/>
        <path d="M30.3529 126H0L12.6471 94H43L30.3529 126Z" fill="#A2E8FC"/>
        <path d="M204.647 250H175L187.353 219H217L204.647 250Z" fill="#A2E8FC"/>
        <path d="M61.3529 177H31L43.6471 146H74L61.3529 177Z" fill="#A2E8FC"/>
    </g>
</svg>
