<svg width="660" height="571" viewBox="0 0 660 571" fill="none" xmlns="http://www.w3.org/2000/svg">
    <g opacity="0.1">
        <path d="M631.117 413.356H561.799L590.682 342.561H660L631.117 413.356Z" fill="#918675"/>
        <path d="M304.543 296.886H235.225L264.108 223.806H333.426L304.543 296.886Z" fill="#918675"/>
        <path d="M513.035 374.533H445.329L473.54 303.737H541.246L513.035 374.533Z" fill="#918675"/>
        <path d="M185.789 210.104H116.471L145.353 137.024H214.671L185.789 210.104Z" fill="#918675"/>
        <path d="M467.36 237.509H399.654L427.865 166.713H495.571L467.36 237.509Z" fill="#918675"/>
        <path d="M140.114 70.7959H70.7959L99.6785 5.34058e-05H168.997L140.114 70.7959Z" fill="#918675"/>
        <path d="M395.893 452.18H326.574L355.457 381.384H424.775L395.893 452.18Z" fill="#918675"/>
        <path d="M69.3181 287.751H-7.62939e-06L28.8826 214.671H98.2007L69.3181 287.751Z" fill="#918675"/>
        <path d="M467.36 570.934H399.654L427.865 500.138H495.571L467.36 570.934Z" fill="#918675"/>
        <path d="M140.114 404.222H70.7959L99.6785 333.426H168.997L140.114 404.222Z" fill="#918675"/>
    </g>
</svg>
