<svg width="226" height="226" viewBox="0 0 226 226" fill="none" xmlns="http://www.w3.org/2000/svg">
    <g clip-path="url(#clip0_350_1829)">
        <mask id="mask0_350_1829" style="mask-type:luminance" maskUnits="userSpaceOnUse" x="0" y="0" width="226"
              height="227">
            <path d="M226 0H0V226.001H226V0Z" fill="white"/>
        </mask>
        <g mask="url(#mask0_350_1829)">
            <path d="M61.0808 0H54.9727V6.10811H61.0808V0Z" fill="#005164"/>
            <path d="M67.1901 0H61.082V6.10811H67.1901V0Z" fill="#005164"/>
            <path d="M79.405 0H73.2969V6.10811H79.405V0Z" fill="#005164"/>
            <path d="M85.5143 0H79.4062V6.10811H85.5143V0Z" fill="#005164"/>
            <path d="M122.163 0H116.055V6.10811H122.163V0Z" fill="#005164"/>
            <path d="M140.488 0H134.379V6.10811H140.488V0Z" fill="#005164"/>
            <path d="M146.595 0H140.486V6.10811H146.595V0Z" fill="#005164"/>
            <path d="M152.704 0H146.596V6.10811H152.704V0Z" fill="#005164"/>
            <path d="M164.919 0H158.811V6.10811H164.919V0Z" fill="#005164"/>
            <path d="M171.028 0H164.92V6.10811H171.028V0Z" fill="#005164"/>
            <path d="M177.135 0H171.027V6.10811H177.135V0Z" fill="#005164"/>
            <path d="M61.0808 6.10742H54.9727V12.2155H61.0808V6.10742Z" fill="#005164"/>
            <path d="M79.405 6.10742H73.2969V12.2155H79.405V6.10742Z" fill="#005164"/>
            <path d="M85.5143 6.10742H79.4062V12.2155H85.5143V6.10742Z" fill="#005164"/>
            <path d="M91.6218 6.10742H85.5137V12.2155H91.6218V6.10742Z" fill="#005164"/>
            <path d="M103.839 6.10742H97.7305V12.2155H103.839V6.10742Z" fill="#005164"/>
            <path d="M109.946 6.10742H103.838V12.2155H109.946V6.10742Z" fill="#005164"/>
            <path d="M116.053 6.10742H109.945V12.2155H116.053V6.10742Z" fill="#005164"/>
            <path d="M134.378 6.10742H128.27V12.2155H134.378V6.10742Z" fill="#005164"/>
            <path d="M140.487 6.10742H134.379V12.2155H140.487V6.10742Z" fill="#005164"/>
            <path d="M146.594 6.10742H140.486V12.2155H146.594V6.10742Z" fill="#005164"/>
            <path d="M164.919 6.10742H158.811V12.2155H164.919V6.10742Z" fill="#005164"/>
            <path d="M171.028 6.10742H164.92V12.2155H171.028V6.10742Z" fill="#005164"/>
            <path d="M177.135 6.10742H171.027V12.2155H177.135V6.10742Z" fill="#005164"/>
            <path d="M67.1901 12.2168H61.082V18.3249H67.1901V12.2168Z" fill="#005164"/>
            <path d="M73.2976 12.2168H67.1895V18.3249H73.2976V12.2168Z" fill="#005164"/>
            <path d="M79.405 12.2168H73.2969V18.3249H79.405V12.2168Z" fill="#005164"/>
            <path d="M103.839 12.2168H97.7305V18.3249H103.839V12.2168Z" fill="#005164"/>
            <path d="M122.163 12.2168H116.055V18.3249H122.163V12.2168Z" fill="#005164"/>
            <path d="M134.378 12.2168H128.27V18.3249H134.378V12.2168Z" fill="#005164"/>
            <path d="M140.487 12.2168H134.379V18.3249H140.487V12.2168Z" fill="#005164"/>
            <path d="M146.594 12.2168H140.486V18.3249H146.594V12.2168Z" fill="#005164"/>
            <path d="M152.704 12.2168H146.596V18.3249H152.704V12.2168Z" fill="#005164"/>
            <path d="M164.919 12.2168H158.811V18.3249H164.919V12.2168Z" fill="#005164"/>
            <path d="M109.946 18.3242H103.838V24.4323H109.946V18.3242Z" fill="#005164"/>
            <path d="M116.053 18.3242H109.945V24.4323H116.053V18.3242Z" fill="#005164"/>
            <path d="M122.163 18.3242H116.055V24.4323H122.163V18.3242Z" fill="#005164"/>
            <path d="M134.378 18.3242H128.27V24.4323H134.378V18.3242Z" fill="#005164"/>
            <path d="M146.595 18.3242H140.486V24.4323H146.595V18.3242Z" fill="#005164"/>
            <path d="M54.9733 24.4326H48.8652V30.5407H54.9733V24.4326Z" fill="#005164"/>
            <path d="M97.7292 24.4326H91.6211V30.5407H97.7292V24.4326Z" fill="#005164"/>
            <path d="M103.839 24.4326H97.7305V30.5407H103.839V24.4326Z" fill="#005164"/>
            <path d="M128.27 24.4326H122.162V30.5407H128.27V24.4326Z" fill="#005164"/>
            <path d="M146.595 24.4326H140.486V30.5407H146.595V24.4326Z" fill="#005164"/>
            <path d="M158.811 24.4326H152.703V30.5407H158.811V24.4326Z" fill="#005164"/>
            <path d="M164.919 24.4326H158.811V30.5407H164.919V24.4326Z" fill="#005164"/>
            <path d="M171.028 24.4326H164.92V30.5407H171.028V24.4326Z" fill="#005164"/>
            <path d="M79.405 30.54H73.2969V36.6481H79.405V30.54Z" fill="#005164"/>
            <path d="M85.5143 30.54H79.4062V36.6481H85.5143V30.54Z" fill="#005164"/>
            <path d="M91.6218 30.54H85.5137V36.6481H91.6218V30.54Z" fill="#005164"/>
            <path d="M97.7292 30.54H91.6211V36.6481H97.7292V30.54Z" fill="#005164"/>
            <path d="M103.839 30.54H97.7305V36.6481H103.839V30.54Z" fill="#005164"/>
            <path d="M122.163 30.54H116.055V36.6481H122.163V30.54Z" fill="#005164"/>
            <path d="M134.378 30.54H128.27V36.6481H134.378V30.54Z" fill="#005164"/>
            <path d="M146.594 30.54H140.486V36.6481H146.594V30.54Z" fill="#005164"/>
            <path d="M152.704 30.54H146.596V36.6481H152.704V30.54Z" fill="#005164"/>
            <path d="M164.919 30.54H158.811V36.6481H164.919V30.54Z" fill="#005164"/>
            <path d="M54.9733 36.6484H48.8652V42.7565H54.9733V36.6484Z" fill="#005164"/>
            <path d="M67.1901 36.6484H61.082V42.7565H67.1901V36.6484Z" fill="#005164"/>
            <path d="M79.405 36.6484H73.2969V42.7565H79.405V36.6484Z" fill="#005164"/>
            <path d="M91.6219 36.6484H85.5137V42.7565H91.6219V36.6484Z" fill="#005164"/>
            <path d="M103.839 36.6484H97.7305V42.7565H103.839V36.6484Z" fill="#005164"/>
            <path d="M116.053 36.6484H109.945V42.7565H116.053V36.6484Z" fill="#005164"/>
            <path d="M128.27 36.6484H122.162V42.7565H128.27V36.6484Z" fill="#005164"/>
            <path d="M140.488 36.6484H134.379V42.7565H140.488V36.6484Z" fill="#005164"/>
            <path d="M152.704 36.6484H146.596V42.7565H152.704V36.6484Z" fill="#005164"/>
            <path d="M164.919 36.6484H158.811V42.7565H164.919V36.6484Z" fill="#005164"/>
            <path d="M177.135 36.6484H171.027V42.7565H177.135V36.6484Z" fill="#005164"/>
            <path d="M54.9733 42.7568H48.8652V48.8649H54.9733V42.7568Z" fill="#005164"/>
            <path d="M67.1901 42.7568H61.082V48.8649H67.1901V42.7568Z" fill="#005164"/>
            <path d="M73.2976 42.7568H67.1895V48.8649H73.2976V42.7568Z" fill="#005164"/>
            <path d="M134.378 42.7568H128.27V48.8649H134.378V42.7568Z" fill="#005164"/>
            <path d="M158.811 42.7568H152.703V48.8649H158.811V42.7568Z" fill="#005164"/>
            <path d="M164.919 42.7568H158.811V48.8649H164.919V42.7568Z" fill="#005164"/>
            <path d="M171.028 42.7568H164.92V48.8649H171.028V42.7568Z" fill="#005164"/>
            <path d="M177.135 42.7568H171.027V48.8649H177.135V42.7568Z" fill="#005164"/>
            <path d="M18.3249 48.8643H12.2168V54.9724H18.3249V48.8643Z" fill="#005164"/>
            <path d="M24.4323 48.8643H18.3242V54.9724H24.4323V48.8643Z" fill="#005164"/>
            <path d="M42.7565 48.8643H36.6484V54.9724H42.7565V48.8643Z" fill="#005164"/>
            <path d="M48.864 48.8643H42.7559V54.9724H48.864V48.8643Z" fill="#005164"/>
            <path d="M54.9733 48.8643H48.8652V54.9724H54.9733V48.8643Z" fill="#005164"/>
            <path d="M61.0808 48.8643H54.9727V54.9724H61.0808V48.8643Z" fill="#005164"/>
            <path d="M73.2976 48.8643H67.1895V54.9724H73.2976V48.8643Z" fill="#005164"/>
            <path d="M91.6218 48.8643H85.5137V54.9724H91.6218V48.8643Z" fill="#005164"/>
            <path d="M97.7292 48.8643H91.6211V54.9724H97.7292V48.8643Z" fill="#005164"/>
            <path d="M109.946 48.8643H103.838V54.9724H109.946V48.8643Z" fill="#005164"/>
            <path d="M116.053 48.8643H109.945V54.9724H116.053V48.8643Z" fill="#005164"/>
            <path d="M122.163 48.8643H116.055V54.9724H122.163V48.8643Z" fill="#005164"/>
            <path d="M128.27 48.8643H122.162V54.9724H128.27V48.8643Z" fill="#005164"/>
            <path d="M146.594 48.8643H140.486V54.9724H146.594V48.8643Z" fill="#005164"/>
            <path d="M158.811 48.8643H152.703V54.9724H158.811V48.8643Z" fill="#005164"/>
            <path d="M164.919 48.8643H158.811V54.9724H164.919V48.8643Z" fill="#005164"/>
            <path d="M171.028 48.8643H164.92V54.9724H171.028V48.8643Z" fill="#005164"/>
            <path d="M183.243 48.8643H177.135V54.9724H183.243V48.8643Z" fill="#005164"/>
            <path d="M189.35 48.8643H183.242V54.9724H189.35V48.8643Z" fill="#005164"/>
            <path d="M201.568 48.8643H195.459V54.9724H201.568V48.8643Z" fill="#005164"/>
            <path d="M18.3249 54.9736H12.2168V61.0817H18.3249V54.9736Z" fill="#005164"/>
            <path d="M24.4323 54.9736H18.3242V61.0817H24.4323V54.9736Z" fill="#005164"/>
            <path d="M30.5397 54.9736H24.4316V61.0817H30.5397V54.9736Z" fill="#005164"/>
            <path d="M36.6491 54.9736H30.541V61.0817H36.6491V54.9736Z" fill="#005164"/>
            <path d="M73.2976 54.9736H67.1895V61.0817H73.2976V54.9736Z" fill="#005164"/>
            <path d="M79.405 54.9736H73.2969V61.0817H79.405V54.9736Z" fill="#005164"/>
            <path d="M85.5143 54.9736H79.4062V61.0817H85.5143V54.9736Z" fill="#005164"/>
            <path d="M97.7292 54.9736H91.6211V61.0817H97.7292V54.9736Z" fill="#005164"/>
            <path d="M116.053 54.9736H109.945V61.0817H116.053V54.9736Z" fill="#005164"/>
            <path d="M122.163 54.9736H116.055V61.0817H122.163V54.9736Z" fill="#005164"/>
            <path d="M128.27 54.9736H122.162V61.0817H128.27V54.9736Z" fill="#005164"/>
            <path d="M134.378 54.9736H128.27V61.0817H134.378V54.9736Z" fill="#005164"/>
            <path d="M146.594 54.9736H140.486V61.0817H146.594V54.9736Z" fill="#005164"/>
            <path d="M158.811 54.9736H152.703V61.0817H158.811V54.9736Z" fill="#005164"/>
            <path d="M171.028 54.9736H164.92V61.0817H171.028V54.9736Z" fill="#005164"/>
            <path d="M189.35 54.9736H183.242V61.0817H189.35V54.9736Z" fill="#005164"/>
            <path d="M195.461 54.9736H189.352V61.0817H195.461V54.9736Z" fill="#005164"/>
            <path d="M201.568 54.9736H195.459V61.0817H201.568V54.9736Z" fill="#005164"/>
            <path d="M207.674 54.9736H201.566V61.0817H207.674V54.9736Z" fill="#005164"/>
            <path d="M219.891 54.9736H213.783V61.0817H219.891V54.9736Z" fill="#005164"/>
            <path d="M226.001 54.9736H219.893V61.0817H226.001V54.9736Z" fill="#005164"/>
            <path d="M24.4323 61.0811H18.3242V67.1892H24.4323V61.0811Z" fill="#005164"/>
            <path d="M36.6491 61.0811H30.541V67.1892H36.6491V61.0811Z" fill="#005164"/>
            <path d="M42.7565 61.0811H36.6484V67.1892H42.7565V61.0811Z" fill="#005164"/>
            <path d="M48.864 61.0811H42.7559V67.1892H48.864V61.0811Z" fill="#005164"/>
            <path d="M54.9733 61.0811H48.8652V67.1892H54.9733V61.0811Z" fill="#005164"/>
            <path d="M61.0808 61.0811H54.9727V67.1892H61.0808V61.0811Z" fill="#005164"/>
            <path d="M67.1901 61.0811H61.082V67.1892H67.1901V61.0811Z" fill="#005164"/>
            <path d="M85.5143 61.0811H79.4062V67.1892H85.5143V61.0811Z" fill="#005164"/>
            <path d="M91.6219 61.0811H85.5137V67.1892H91.6219V61.0811Z" fill="#005164"/>
            <path d="M116.053 61.0811H109.945V67.1892H116.053V61.0811Z" fill="#005164"/>
            <path d="M122.163 61.0811H116.055V67.1892H122.163V61.0811Z" fill="#005164"/>
            <path d="M134.378 61.0811H128.27V67.1892H134.378V61.0811Z" fill="#005164"/>
            <path d="M158.811 61.0811H152.703V67.1892H158.811V61.0811Z" fill="#005164"/>
            <path d="M177.135 61.0811H171.027V67.1892H177.135V61.0811Z" fill="#005164"/>
            <path d="M183.243 61.0811H177.135V67.1892H183.243V61.0811Z" fill="#005164"/>
            <path d="M207.676 61.0811H201.568V67.1892H207.676V61.0811Z" fill="#005164"/>
            <path d="M226.001 61.0811H219.893V67.1892H226.001V61.0811Z" fill="#005164"/>
            <path d="M12.2155 67.1885H6.10742V73.2966H12.2155V67.1885Z" fill="#005164"/>
            <path d="M18.3249 67.1885H12.2168V73.2966H18.3249V67.1885Z" fill="#005164"/>
            <path d="M24.4323 67.1885H18.3242V73.2966H24.4323V67.1885Z" fill="#005164"/>
            <path d="M36.6491 67.1885H30.541V73.2966H36.6491V67.1885Z" fill="#005164"/>
            <path d="M54.9733 67.1885H48.8652V73.2966H54.9733V67.1885Z" fill="#005164"/>
            <path d="M67.1901 67.1885H61.082V73.2966H67.1901V67.1885Z" fill="#005164"/>
            <path d="M85.5143 67.1885H79.4062V73.2966H85.5143V67.1885Z" fill="#005164"/>
            <path d="M97.7292 67.1885H91.6211V73.2966H97.7292V67.1885Z" fill="#005164"/>
            <path d="M103.839 67.1885H97.7305V73.2966H103.839V67.1885Z" fill="#005164"/>
            <path d="M122.163 67.1885H116.055V73.2966H122.163V67.1885Z" fill="#005164"/>
            <path d="M128.27 67.1885H122.162V73.2966H128.27V67.1885Z" fill="#005164"/>
            <path d="M134.378 67.1885H128.27V73.2966H134.378V67.1885Z" fill="#005164"/>
            <path d="M146.594 67.1885H140.486V73.2966H146.594V67.1885Z" fill="#005164"/>
            <path d="M152.704 67.1885H146.596V73.2966H152.704V67.1885Z" fill="#005164"/>
            <path d="M158.811 67.1885H152.703V73.2966H158.811V67.1885Z" fill="#005164"/>
            <path d="M164.919 67.1885H158.811V73.2966H164.919V67.1885Z" fill="#005164"/>
            <path d="M177.135 67.1885H171.027V73.2966H177.135V67.1885Z" fill="#005164"/>
            <path d="M201.568 67.1885H195.459V73.2966H201.568V67.1885Z" fill="#005164"/>
            <path d="M6.10811 73.2979H0V79.406H6.10811V73.2979Z" fill="#005164"/>
            <path d="M12.2155 73.2979H6.10742V79.406H12.2155V73.2979Z" fill="#005164"/>
            <path d="M42.7565 73.2979H36.6484V79.406H42.7565V73.2979Z" fill="#005164"/>
            <path d="M61.0808 73.2979H54.9727V79.406H61.0808V73.2979Z" fill="#005164"/>
            <path d="M97.7292 73.2979H91.6211V79.406H97.7292V73.2979Z" fill="#005164"/>
            <path d="M103.839 73.2979H97.7305V79.406H103.839V73.2979Z" fill="#005164"/>
            <path d="M134.378 73.2979H128.27V79.406H134.378V73.2979Z" fill="#005164"/>
            <path d="M140.487 73.2979H134.379V79.406H140.487V73.2979Z" fill="#005164"/>
            <path d="M158.811 73.2979H152.703V79.406H158.811V73.2979Z" fill="#005164"/>
            <path d="M164.919 73.2979H158.811V79.406H164.919V73.2979Z" fill="#005164"/>
            <path d="M171.028 73.2979H164.92V79.406H171.028V73.2979Z" fill="#005164"/>
            <path d="M177.135 73.2979H171.027V79.406H177.135V73.2979Z" fill="#005164"/>
            <path d="M183.243 73.2979H177.135V79.406H183.243V73.2979Z" fill="#005164"/>
            <path d="M189.35 73.2979H183.242V79.406H189.35V73.2979Z" fill="#005164"/>
            <path d="M195.461 73.2979H189.352V79.406H195.461V73.2979Z" fill="#005164"/>
            <path d="M201.568 73.2979H195.459V79.406H201.568V73.2979Z" fill="#005164"/>
            <path d="M207.674 73.2979H201.566V79.406H207.674V73.2979Z" fill="#005164"/>
            <path d="M226.001 73.2979H219.893V79.406H226.001V73.2979Z" fill="#005164"/>
            <path d="M30.5397 79.4053H24.4316V85.5134H30.5397V79.4053Z" fill="#005164"/>
            <path d="M54.9733 79.4053H48.8652V85.5134H54.9733V79.4053Z" fill="#005164"/>
            <path d="M61.0808 79.4053H54.9727V85.5134H61.0808V79.4053Z" fill="#005164"/>
            <path d="M67.1901 79.4053H61.082V85.5134H67.1901V79.4053Z" fill="#005164"/>
            <path d="M73.2976 79.4053H67.1895V85.5134H73.2976V79.4053Z" fill="#005164"/>
            <path d="M164.919 79.4053H158.811V85.5134H164.919V79.4053Z" fill="#005164"/>
            <path d="M177.135 79.4053H171.027V85.5134H177.135V79.4053Z" fill="#005164"/>
            <path d="M189.35 79.4053H183.242V85.5134H189.35V79.4053Z" fill="#005164"/>
            <path d="M213.784 79.4053H207.676V85.5134H213.784V79.4053Z" fill="#005164"/>
            <path d="M219.891 79.4053H213.783V85.5134H219.891V79.4053Z" fill="#005164"/>
            <path d="M226.001 79.4053H219.893V85.5134H226.001V79.4053Z" fill="#005164"/>
            <path d="M18.3249 85.5137H12.2168V91.6218H18.3249V85.5137Z" fill="#005164"/>
            <path d="M24.4323 85.5137H18.3242V91.6218H24.4323V85.5137Z" fill="#005164"/>
            <path d="M30.5397 85.5137H24.4316V91.6218H30.5397V85.5137Z" fill="#005164"/>
            <path d="M36.6491 85.5137H30.541V91.6218H36.6491V85.5137Z" fill="#005164"/>
            <path d="M42.7565 85.5137H36.6484V91.6218H42.7565V85.5137Z" fill="#005164"/>
            <path d="M152.704 85.5137H146.596V91.6218H152.704V85.5137Z" fill="#005164"/>
            <path d="M158.811 85.5137H152.703V91.6218H158.811V85.5137Z" fill="#005164"/>
            <path d="M171.028 85.5137H164.92V91.6218H171.028V85.5137Z" fill="#005164"/>
            <path d="M177.135 85.5137H171.027V91.6218H177.135V85.5137Z" fill="#005164"/>
            <path d="M189.35 85.5137H183.242V91.6218H189.35V85.5137Z" fill="#005164"/>
            <path d="M195.46 85.5137H189.352V91.6218H195.46V85.5137Z" fill="#005164"/>
            <path d="M213.784 85.5137H207.676V91.6218H213.784V85.5137Z" fill="#005164"/>
            <path d="M219.891 85.5137H213.783V91.6218H219.891V85.5137Z" fill="#005164"/>
            <path d="M12.2155 91.6211H6.10742V97.7292H12.2155V91.6211Z" fill="#005164"/>
            <path d="M30.5397 91.6211H24.4316V97.7292H30.5397V91.6211Z" fill="#005164"/>
            <path d="M54.9733 91.6211H48.8652V97.7292H54.9733V91.6211Z" fill="#005164"/>
            <path d="M73.2976 91.6211H67.1895V97.7292H73.2976V91.6211Z" fill="#005164"/>
            <path d="M79.405 91.6211H73.2969V97.7292H79.405V91.6211Z" fill="#005164"/>
            <path d="M158.811 91.6211H152.703V97.7292H158.811V91.6211Z" fill="#005164"/>
            <path d="M171.028 91.6211H164.92V97.7292H171.028V91.6211Z" fill="#005164"/>
            <path d="M177.135 91.6211H171.027V97.7292H177.135V91.6211Z" fill="#005164"/>
            <path d="M183.243 91.6211H177.135V97.7292H183.243V91.6211Z" fill="#005164"/>
            <path d="M189.35 91.6211H183.242V97.7292H189.35V91.6211Z" fill="#005164"/>
            <path d="M6.10811 97.7295H0V103.838H6.10811V97.7295Z" fill="#005164"/>
            <path d="M18.3249 97.7295H12.2168V103.838H18.3249V97.7295Z" fill="#005164"/>
            <path d="M24.4323 97.7295H18.3242V103.838H24.4323V97.7295Z" fill="#005164"/>
            <path d="M30.5397 97.7295H24.4316V103.838H30.5397V97.7295Z" fill="#005164"/>
            <path d="M36.6491 97.7295H30.541V103.838H36.6491V97.7295Z" fill="#005164"/>
            <path d="M42.7565 97.7295H36.6484V103.838H42.7565V97.7295Z" fill="#005164"/>
            <path d="M48.864 97.7295H42.7559V103.838H48.864V97.7295Z" fill="#005164"/>
            <path d="M61.0808 97.7295H54.9727V103.838H61.0808V97.7295Z" fill="#005164"/>
            <path d="M67.1901 97.7295H61.082V103.838H67.1901V97.7295Z" fill="#005164"/>
            <path d="M152.704 97.7295H146.596V103.838H152.704V97.7295Z" fill="#005164"/>
            <path d="M158.811 97.7295H152.703V103.838H158.811V97.7295Z" fill="#005164"/>
            <path d="M164.919 97.7295H158.811V103.838H164.919V97.7295Z" fill="#005164"/>
            <path d="M183.243 97.7295H177.135V103.838H183.243V97.7295Z" fill="#005164"/>
            <path d="M195.46 97.7295H189.352V103.838H195.46V97.7295Z" fill="#005164"/>
            <path d="M207.676 97.7295H201.568V103.838H207.676V97.7295Z" fill="#005164"/>
            <path d="M213.784 97.7295H207.676V103.838H213.784V97.7295Z" fill="#005164"/>
            <path d="M226.001 97.7295H219.893V103.838H226.001V97.7295Z" fill="#005164"/>
            <path d="M12.2156 103.838H6.10742V109.946H12.2156V103.838Z" fill="#005164"/>
            <path d="M67.1901 103.838H61.082V109.946H67.1901V103.838Z" fill="#005164"/>
            <path d="M158.811 103.838H152.703V109.946H158.811V103.838Z" fill="#005164"/>
            <path d="M164.919 103.838H158.811V109.946H164.919V103.838Z" fill="#005164"/>
            <path d="M177.135 103.838H171.027V109.946H177.135V103.838Z" fill="#005164"/>
            <path d="M189.35 103.838H183.242V109.946H189.35V103.838Z" fill="#005164"/>
            <path d="M207.676 103.838H201.568V109.946H207.676V103.838Z" fill="#005164"/>
            <path d="M213.784 103.838H207.676V109.946H213.784V103.838Z" fill="#005164"/>
            <path d="M226.001 103.838H219.893V109.946H226.001V103.838Z" fill="#005164"/>
            <path d="M12.2155 109.945H6.10742V116.053H12.2155V109.945Z" fill="#005164"/>
            <path d="M18.3249 109.945H12.2168V116.053H18.3249V109.945Z" fill="#005164"/>
            <path d="M24.4323 109.945H18.3242V116.053H24.4323V109.945Z" fill="#005164"/>
            <path d="M30.5397 109.945H24.4316V116.053H30.5397V109.945Z" fill="#005164"/>
            <path d="M42.7565 109.945H36.6484V116.053H42.7565V109.945Z" fill="#005164"/>
            <path d="M48.864 109.945H42.7559V116.053H48.864V109.945Z" fill="#005164"/>
            <path d="M54.9733 109.945H48.8652V116.053H54.9733V109.945Z" fill="#005164"/>
            <path d="M61.0808 109.945H54.9727V116.053H61.0808V109.945Z" fill="#005164"/>
            <path d="M79.405 109.945H73.2969V116.053H79.405V109.945Z" fill="#005164"/>
            <path d="M158.811 109.945H152.703V116.053H158.811V109.945Z" fill="#005164"/>
            <path d="M177.135 109.945H171.027V116.053H177.135V109.945Z" fill="#005164"/>
            <path d="M183.243 109.945H177.135V116.053H183.243V109.945Z" fill="#005164"/>
            <path d="M195.461 109.945H189.352V116.053H195.461V109.945Z" fill="#005164"/>
            <path d="M201.568 109.945H195.459V116.053H201.568V109.945Z" fill="#005164"/>
            <path d="M219.891 109.945H213.783V116.053H219.891V109.945Z" fill="#005164"/>
            <path d="M226.001 109.945H219.893V116.053H226.001V109.945Z" fill="#005164"/>
            <path d="M12.2155 116.055H6.10742V122.163H12.2155V116.055Z" fill="#005164"/>
            <path d="M18.3249 116.055H12.2168V122.163H18.3249V116.055Z" fill="#005164"/>
            <path d="M30.5397 116.055H24.4316V122.163H30.5397V116.055Z" fill="#005164"/>
            <path d="M36.6491 116.055H30.541V122.163H36.6491V116.055Z" fill="#005164"/>
            <path d="M48.864 116.055H42.7559V122.163H48.864V116.055Z" fill="#005164"/>
            <path d="M54.9733 116.055H48.8652V122.163H54.9733V116.055Z" fill="#005164"/>
            <path d="M61.0808 116.055H54.9727V122.163H61.0808V116.055Z" fill="#005164"/>
            <path d="M67.1901 116.055H61.082V122.163H67.1901V116.055Z" fill="#005164"/>
            <path d="M73.2976 116.055H67.1895V122.163H73.2976V116.055Z" fill="#005164"/>
            <path d="M79.405 116.055H73.2969V122.163H79.405V116.055Z" fill="#005164"/>
            <path d="M152.704 116.055H146.596V122.163H152.704V116.055Z" fill="#005164"/>
            <path d="M164.919 116.055H158.811V122.163H164.919V116.055Z" fill="#005164"/>
            <path d="M183.243 116.055H177.135V122.163H183.243V116.055Z" fill="#005164"/>
            <path d="M189.35 116.055H183.242V122.163H189.35V116.055Z" fill="#005164"/>
            <path d="M195.461 116.055H189.352V122.163H195.461V116.055Z" fill="#005164"/>
            <path d="M201.568 116.055H195.459V122.163H201.568V116.055Z" fill="#005164"/>
            <path d="M207.674 116.055H201.566V122.163H207.674V116.055Z" fill="#005164"/>
            <path d="M219.891 116.055H213.783V122.163H219.891V116.055Z" fill="#005164"/>
            <path d="M6.10811 122.162H0V128.27H6.10811V122.162Z" fill="#005164"/>
            <path d="M18.3249 122.162H12.2168V128.27H18.3249V122.162Z" fill="#005164"/>
            <path d="M24.4323 122.162H18.3242V128.27H24.4323V122.162Z" fill="#005164"/>
            <path d="M36.6491 122.162H30.541V128.27H36.6491V122.162Z" fill="#005164"/>
            <path d="M42.7565 122.162H36.6484V128.27H42.7565V122.162Z" fill="#005164"/>
            <path d="M48.864 122.162H42.7559V128.27H48.864V122.162Z" fill="#005164"/>
            <path d="M54.9733 122.162H48.8652V128.27H54.9733V122.162Z" fill="#005164"/>
            <path d="M79.405 122.162H73.2969V128.27H79.405V122.162Z" fill="#005164"/>
            <path d="M177.135 122.162H171.027V128.27H177.135V122.162Z" fill="#005164"/>
            <path d="M183.243 122.162H177.135V128.27H183.243V122.162Z" fill="#005164"/>
            <path d="M189.35 122.162H183.242V128.27H189.35V122.162Z" fill="#005164"/>
            <path d="M201.568 122.162H195.459V128.27H201.568V122.162Z" fill="#005164"/>
            <path d="M207.676 122.162H201.568V128.27H207.676V122.162Z" fill="#005164"/>
            <path d="M219.891 122.162H213.783V128.27H219.891V122.162Z" fill="#005164"/>
            <path d="M6.10811 128.271H0V134.379H6.10811V128.271Z" fill="#005164"/>
            <path d="M18.3249 128.271H12.2168V134.379H18.3249V128.271Z" fill="#005164"/>
            <path d="M24.4323 128.271H18.3242V134.379H24.4323V128.271Z" fill="#005164"/>
            <path d="M48.864 128.271H42.7559V134.379H48.864V128.271Z" fill="#005164"/>
            <path d="M54.9733 128.271H48.8652V134.379H54.9733V128.271Z" fill="#005164"/>
            <path d="M61.0808 128.271H54.9727V134.379H61.0808V128.271Z" fill="#005164"/>
            <path d="M67.1901 128.271H61.082V134.379H67.1901V128.271Z" fill="#005164"/>
            <path d="M152.704 128.271H146.596V134.379H152.704V128.271Z" fill="#005164"/>
            <path d="M183.243 128.271H177.135V134.379H183.243V128.271Z" fill="#005164"/>
            <path d="M189.35 128.271H183.242V134.379H189.35V128.271Z" fill="#005164"/>
            <path d="M195.46 128.271H189.352V134.379H195.46V128.271Z" fill="#005164"/>
            <path d="M207.676 128.271H201.568V134.379H207.676V128.271Z" fill="#005164"/>
            <path d="M219.891 128.271H213.783V134.379H219.891V128.271Z" fill="#005164"/>
            <path d="M226.001 128.271H219.893V134.379H226.001V128.271Z" fill="#005164"/>
            <path d="M30.5397 134.379H24.4316V140.487H30.5397V134.379Z" fill="#005164"/>
            <path d="M42.7565 134.379H36.6484V140.487H42.7565V134.379Z" fill="#005164"/>
            <path d="M61.0808 134.379H54.9727V140.487H61.0808V134.379Z" fill="#005164"/>
            <path d="M79.405 134.379H73.2969V140.487H79.405V134.379Z" fill="#005164"/>
            <path d="M164.919 134.379H158.811V140.487H164.919V134.379Z" fill="#005164"/>
            <path d="M183.243 134.379H177.135V140.487H183.243V134.379Z" fill="#005164"/>
            <path d="M201.568 134.379H195.459V140.487H201.568V134.379Z" fill="#005164"/>
            <path d="M207.674 134.379H201.566V140.487H207.674V134.379Z" fill="#005164"/>
            <path d="M226.001 134.379H219.893V140.487H226.001V134.379Z" fill="#005164"/>
            <path d="M12.2156 140.486H6.10742V146.594H12.2156V140.486Z" fill="#005164"/>
            <path d="M18.3249 140.486H12.2168V146.594H18.3249V140.486Z" fill="#005164"/>
            <path d="M24.4323 140.486H18.3242V146.594H24.4323V140.486Z" fill="#005164"/>
            <path d="M30.5397 140.486H24.4316V146.594H30.5397V140.486Z" fill="#005164"/>
            <path d="M48.864 140.486H42.7559V146.594H48.864V140.486Z" fill="#005164"/>
            <path d="M54.9733 140.486H48.8652V146.594H54.9733V140.486Z" fill="#005164"/>
            <path d="M67.1901 140.486H61.082V146.594H67.1901V140.486Z" fill="#005164"/>
            <path d="M152.704 140.486H146.596V146.594H152.704V140.486Z" fill="#005164"/>
            <path d="M158.811 140.486H152.703V146.594H158.811V140.486Z" fill="#005164"/>
            <path d="M164.919 140.486H158.811V146.594H164.919V140.486Z" fill="#005164"/>
            <path d="M171.028 140.486H164.92V146.594H171.028V140.486Z" fill="#005164"/>
            <path d="M177.135 140.486H171.027V146.594H177.135V140.486Z" fill="#005164"/>
            <path d="M183.243 140.486H177.135V146.594H183.243V140.486Z" fill="#005164"/>
            <path d="M6.10811 146.595H0V152.703H6.10811V146.595Z" fill="#005164"/>
            <path d="M12.2156 146.595H6.10742V152.703H12.2156V146.595Z" fill="#005164"/>
            <path d="M24.4323 146.595H18.3242V152.703H24.4323V146.595Z" fill="#005164"/>
            <path d="M42.7565 146.595H36.6484V152.703H42.7565V146.595Z" fill="#005164"/>
            <path d="M54.9733 146.595H48.8652V152.703H54.9733V146.595Z" fill="#005164"/>
            <path d="M61.0808 146.595H54.9727V152.703H61.0808V146.595Z" fill="#005164"/>
            <path d="M73.2976 146.595H67.1895V152.703H73.2976V146.595Z" fill="#005164"/>
            <path d="M85.5143 146.595H79.4062V152.703H85.5143V146.595Z" fill="#005164"/>
            <path d="M91.6219 146.595H85.5137V152.703H91.6219V146.595Z" fill="#005164"/>
            <path d="M103.839 146.595H97.7305V152.703H103.839V146.595Z" fill="#005164"/>
            <path d="M128.27 146.595H122.162V152.703H128.27V146.595Z" fill="#005164"/>
            <path d="M146.595 146.595H140.486V152.703H146.595V146.595Z" fill="#005164"/>
            <path d="M189.35 146.595H183.242V152.703H189.35V146.595Z" fill="#005164"/>
            <path d="M207.676 146.595H201.568V152.703H207.676V146.595Z" fill="#005164"/>
            <path d="M226.001 146.595H219.893V152.703H226.001V146.595Z" fill="#005164"/>
            <path d="M12.2155 152.702H6.10742V158.81H12.2155V152.702Z" fill="#005164"/>
            <path d="M18.3249 152.702H12.2168V158.81H18.3249V152.702Z" fill="#005164"/>
            <path d="M30.5397 152.702H24.4316V158.81H30.5397V152.702Z" fill="#005164"/>
            <path d="M36.6491 152.702H30.541V158.81H36.6491V152.702Z" fill="#005164"/>
            <path d="M48.864 152.702H42.7559V158.81H48.864V152.702Z" fill="#005164"/>
            <path d="M54.9733 152.702H48.8652V158.81H54.9733V152.702Z" fill="#005164"/>
            <path d="M61.0808 152.702H54.9727V158.81H61.0808V152.702Z" fill="#005164"/>
            <path d="M67.1901 152.702H61.082V158.81H67.1901V152.702Z" fill="#005164"/>
            <path d="M91.6218 152.702H85.5137V158.81H91.6218V152.702Z" fill="#005164"/>
            <path d="M140.487 152.702H134.379V158.81H140.487V152.702Z" fill="#005164"/>
            <path d="M146.594 152.702H140.486V158.81H146.594V152.702Z" fill="#005164"/>
            <path d="M158.811 152.702H152.703V158.81H158.811V152.702Z" fill="#005164"/>
            <path d="M177.135 152.702H171.027V158.81H177.135V152.702Z" fill="#005164"/>
            <path d="M201.568 152.702H195.459V158.81H201.568V152.702Z" fill="#005164"/>
            <path d="M207.674 152.702H201.566V158.81H207.674V152.702Z" fill="#005164"/>
            <path d="M226.001 152.702H219.893V158.81H226.001V152.702Z" fill="#005164"/>
            <path d="M12.2155 158.812H6.10742V164.92H12.2155V158.812Z" fill="#005164"/>
            <path d="M24.4323 158.812H18.3242V164.92H24.4323V158.812Z" fill="#005164"/>
            <path d="M30.5397 158.812H24.4316V164.92H30.5397V158.812Z" fill="#005164"/>
            <path d="M36.6491 158.812H30.541V164.92H36.6491V158.812Z" fill="#005164"/>
            <path d="M42.7565 158.812H36.6484V164.92H42.7565V158.812Z" fill="#005164"/>
            <path d="M61.0808 158.812H54.9727V164.92H61.0808V158.812Z" fill="#005164"/>
            <path d="M67.1901 158.812H61.082V164.92H67.1901V158.812Z" fill="#005164"/>
            <path d="M79.405 158.812H73.2969V164.92H79.405V158.812Z" fill="#005164"/>
            <path d="M91.6218 158.812H85.5137V164.92H91.6218V158.812Z" fill="#005164"/>
            <path d="M97.7292 158.812H91.6211V164.92H97.7292V158.812Z" fill="#005164"/>
            <path d="M116.053 158.812H109.945V164.92H116.053V158.812Z" fill="#005164"/>
            <path d="M122.163 158.812H116.055V164.92H122.163V158.812Z" fill="#005164"/>
            <path d="M128.27 158.812H122.162V164.92H128.27V158.812Z" fill="#005164"/>
            <path d="M152.704 158.812H146.596V164.92H152.704V158.812Z" fill="#005164"/>
            <path d="M158.811 158.812H152.703V164.92H158.811V158.812Z" fill="#005164"/>
            <path d="M171.028 158.812H164.92V164.92H171.028V158.812Z" fill="#005164"/>
            <path d="M177.135 158.812H171.027V164.92H177.135V158.812Z" fill="#005164"/>
            <path d="M201.568 158.812H195.459V164.92H201.568V158.812Z" fill="#005164"/>
            <path d="M213.784 158.812H207.676V164.92H213.784V158.812Z" fill="#005164"/>
            <path d="M226.001 158.812H219.893V164.92H226.001V158.812Z" fill="#005164"/>
            <path d="M6.10811 164.919H0V171.027H6.10811V164.919Z" fill="#005164"/>
            <path d="M18.3249 164.919H12.2168V171.027H18.3249V164.919Z" fill="#005164"/>
            <path d="M24.4323 164.919H18.3242V171.027H24.4323V164.919Z" fill="#005164"/>
            <path d="M54.9733 164.919H48.8652V171.027H54.9733V164.919Z" fill="#005164"/>
            <path d="M67.1901 164.919H61.082V171.027H67.1901V164.919Z" fill="#005164"/>
            <path d="M79.405 164.919H73.2969V171.027H79.405V164.919Z" fill="#005164"/>
            <path d="M91.6219 164.919H85.5137V171.027H91.6219V164.919Z" fill="#005164"/>
            <path d="M97.7292 164.919H91.6211V171.027H97.7292V164.919Z" fill="#005164"/>
            <path d="M103.839 164.919H97.7305V171.027H103.839V164.919Z" fill="#005164"/>
            <path d="M116.053 164.919H109.945V171.027H116.053V164.919Z" fill="#005164"/>
            <path d="M140.488 164.919H134.379V171.027H140.488V164.919Z" fill="#005164"/>
            <path d="M152.704 164.919H146.596V171.027H152.704V164.919Z" fill="#005164"/>
            <path d="M164.919 164.919H158.811V171.027H164.919V164.919Z" fill="#005164"/>
            <path d="M177.135 164.919H171.027V171.027H177.135V164.919Z" fill="#005164"/>
            <path d="M183.243 164.919H177.135V171.027H183.243V164.919Z" fill="#005164"/>
            <path d="M195.46 164.919H189.352V171.027H195.46V164.919Z" fill="#005164"/>
            <path d="M201.568 164.919H195.459V171.027H201.568V164.919Z" fill="#005164"/>
            <path d="M207.676 164.919H201.568V171.027H207.676V164.919Z" fill="#005164"/>
            <path d="M226.001 164.919H219.893V171.027H226.001V164.919Z" fill="#005164"/>
            <path d="M18.3249 171.026H12.2168V177.134H18.3249V171.026Z" fill="#005164"/>
            <path d="M24.4323 171.026H18.3242V177.134H24.4323V171.026Z" fill="#005164"/>
            <path d="M30.5397 171.026H24.4316V177.134H30.5397V171.026Z" fill="#005164"/>
            <path d="M42.7565 171.026H36.6484V177.134H42.7565V171.026Z" fill="#005164"/>
            <path d="M54.9733 171.026H48.8652V177.134H54.9733V171.026Z" fill="#005164"/>
            <path d="M61.0808 171.026H54.9727V177.134H61.0808V171.026Z" fill="#005164"/>
            <path d="M79.405 171.026H73.2969V177.134H79.405V171.026Z" fill="#005164"/>
            <path d="M85.5143 171.026H79.4062V177.134H85.5143V171.026Z" fill="#005164"/>
            <path d="M97.7292 171.026H91.6211V177.134H97.7292V171.026Z" fill="#005164"/>
            <path d="M109.946 171.026H103.838V177.134H109.946V171.026Z" fill="#005164"/>
            <path d="M122.163 171.026H116.055V177.134H122.163V171.026Z" fill="#005164"/>
            <path d="M140.487 171.026H134.379V177.134H140.487V171.026Z" fill="#005164"/>
            <path d="M146.594 171.026H140.486V177.134H146.594V171.026Z" fill="#005164"/>
            <path d="M158.811 171.026H152.703V177.134H158.811V171.026Z" fill="#005164"/>
            <path d="M171.028 171.026H164.92V177.134H171.028V171.026Z" fill="#005164"/>
            <path d="M177.135 171.026H171.027V177.134H177.135V171.026Z" fill="#005164"/>
            <path d="M183.243 171.026H177.135V177.134H183.243V171.026Z" fill="#005164"/>
            <path d="M189.35 171.026H183.242V177.134H189.35V171.026Z" fill="#005164"/>
            <path d="M195.461 171.026H189.352V177.134H195.461V171.026Z" fill="#005164"/>
            <path d="M201.568 171.026H195.459V177.134H201.568V171.026Z" fill="#005164"/>
            <path d="M213.784 171.026H207.676V177.134H213.784V171.026Z" fill="#005164"/>
            <path d="M219.891 171.026H213.783V177.134H219.891V171.026Z" fill="#005164"/>
            <path d="M54.9733 177.136H48.8652V183.244H54.9733V177.136Z" fill="#005164"/>
            <path d="M61.0808 177.136H54.9727V183.244H61.0808V177.136Z" fill="#005164"/>
            <path d="M85.5143 177.136H79.4062V183.244H85.5143V177.136Z" fill="#005164"/>
            <path d="M91.6218 177.136H85.5137V183.244H91.6218V177.136Z" fill="#005164"/>
            <path d="M97.7292 177.136H91.6211V183.244H97.7292V177.136Z" fill="#005164"/>
            <path d="M103.839 177.136H97.7305V183.244H103.839V177.136Z" fill="#005164"/>
            <path d="M128.27 177.136H122.162V183.244H128.27V177.136Z" fill="#005164"/>
            <path d="M134.378 177.136H128.27V183.244H134.378V177.136Z" fill="#005164"/>
            <path d="M158.811 177.136H152.703V183.244H158.811V177.136Z" fill="#005164"/>
            <path d="M177.135 177.136H171.027V183.244H177.135V177.136Z" fill="#005164"/>
            <path d="M201.568 177.136H195.459V183.244H201.568V177.136Z" fill="#005164"/>
            <path d="M207.674 177.136H201.566V183.244H207.674V177.136Z" fill="#005164"/>
            <path d="M213.784 177.136H207.676V183.244H213.784V177.136Z" fill="#005164"/>
            <path d="M226.001 177.136H219.893V183.244H226.001V177.136Z" fill="#005164"/>
            <path d="M54.9733 183.243H48.8652V189.351H54.9733V183.243Z" fill="#005164"/>
            <path d="M61.0808 183.243H54.9727V189.351H61.0808V183.243Z" fill="#005164"/>
            <path d="M73.2976 183.243H67.1895V189.351H73.2976V183.243Z" fill="#005164"/>
            <path d="M91.6219 183.243H85.5137V189.351H91.6219V183.243Z" fill="#005164"/>
            <path d="M109.946 183.243H103.838V189.351H109.946V183.243Z" fill="#005164"/>
            <path d="M122.163 183.243H116.055V189.351H122.163V183.243Z" fill="#005164"/>
            <path d="M128.27 183.243H122.162V189.351H128.27V183.243Z" fill="#005164"/>
            <path d="M134.378 183.243H128.27V189.351H134.378V183.243Z" fill="#005164"/>
            <path d="M146.595 183.243H140.486V189.351H146.595V183.243Z" fill="#005164"/>
            <path d="M158.811 183.243H152.703V189.351H158.811V183.243Z" fill="#005164"/>
            <path d="M171.028 183.243H164.92V189.351H171.028V183.243Z" fill="#005164"/>
            <path d="M177.135 183.243H171.027V189.351H177.135V183.243Z" fill="#005164"/>
            <path d="M189.35 183.243H183.242V189.351H189.35V183.243Z" fill="#005164"/>
            <path d="M201.568 183.243H195.459V189.351H201.568V183.243Z" fill="#005164"/>
            <path d="M207.676 183.243H201.568V189.351H207.676V183.243Z" fill="#005164"/>
            <path d="M219.891 183.243H213.783V189.351H219.891V183.243Z" fill="#005164"/>
            <path d="M226.001 183.243H219.893V189.351H226.001V183.243Z" fill="#005164"/>
            <path d="M61.0808 189.352H54.9727V195.46H61.0808V189.352Z" fill="#005164"/>
            <path d="M73.2976 189.352H67.1895V195.46H73.2976V189.352Z" fill="#005164"/>
            <path d="M91.6219 189.352H85.5137V195.46H91.6219V189.352Z" fill="#005164"/>
            <path d="M97.7292 189.352H91.6211V195.46H97.7292V189.352Z" fill="#005164"/>
            <path d="M128.27 189.352H122.162V195.46H128.27V189.352Z" fill="#005164"/>
            <path d="M134.378 189.352H128.27V195.46H134.378V189.352Z" fill="#005164"/>
            <path d="M140.488 189.352H134.379V195.46H140.488V189.352Z" fill="#005164"/>
            <path d="M146.595 189.352H140.486V195.46H146.595V189.352Z" fill="#005164"/>
            <path d="M158.811 189.352H152.703V195.46H158.811V189.352Z" fill="#005164"/>
            <path d="M164.919 189.352H158.811V195.46H164.919V189.352Z" fill="#005164"/>
            <path d="M177.135 189.352H171.027V195.46H177.135V189.352Z" fill="#005164"/>
            <path d="M201.568 189.352H195.459V195.46H201.568V189.352Z" fill="#005164"/>
            <path d="M207.676 189.352H201.568V195.46H207.676V189.352Z" fill="#005164"/>
            <path d="M219.891 189.352H213.783V195.46H219.891V189.352Z" fill="#005164"/>
            <path d="M226.001 189.352H219.893V195.46H226.001V189.352Z" fill="#005164"/>
            <path d="M67.1901 195.46H61.082V201.568H67.1901V195.46Z" fill="#005164"/>
            <path d="M73.2976 195.46H67.1895V201.568H73.2976V195.46Z" fill="#005164"/>
            <path d="M79.405 195.46H73.2969V201.568H79.405V195.46Z" fill="#005164"/>
            <path d="M85.5143 195.46H79.4062V201.568H85.5143V195.46Z" fill="#005164"/>
            <path d="M91.6218 195.46H85.5137V201.568H91.6218V195.46Z" fill="#005164"/>
            <path d="M97.7292 195.46H91.6211V201.568H97.7292V195.46Z" fill="#005164"/>
            <path d="M134.378 195.46H128.27V201.568H134.378V195.46Z" fill="#005164"/>
            <path d="M140.487 195.46H134.379V201.568H140.487V195.46Z" fill="#005164"/>
            <path d="M158.811 195.46H152.703V201.568H158.811V195.46Z" fill="#005164"/>
            <path d="M164.919 195.46H158.811V201.568H164.919V195.46Z" fill="#005164"/>
            <path d="M171.028 195.46H164.92V201.568H171.028V195.46Z" fill="#005164"/>
            <path d="M177.135 195.46H171.027V201.568H177.135V195.46Z" fill="#005164"/>
            <path d="M183.243 195.46H177.135V201.568H183.243V195.46Z" fill="#005164"/>
            <path d="M189.35 195.46H183.242V201.568H189.35V195.46Z" fill="#005164"/>
            <path d="M195.461 195.46H189.352V201.568H195.461V195.46Z" fill="#005164"/>
            <path d="M201.568 195.46H195.459V201.568H201.568V195.46Z" fill="#005164"/>
            <path d="M207.674 195.46H201.566V201.568H207.674V195.46Z" fill="#005164"/>
            <path d="M219.891 195.46H213.783V201.568H219.891V195.46Z" fill="#005164"/>
            <path d="M226.001 195.46H219.893V201.568H226.001V195.46Z" fill="#005164"/>
            <path d="M54.9733 201.567H48.8652V207.675H54.9733V201.567Z" fill="#005164"/>
            <path d="M61.0808 201.567H54.9727V207.675H61.0808V201.567Z" fill="#005164"/>
            <path d="M67.1901 201.567H61.082V207.675H67.1901V201.567Z" fill="#005164"/>
            <path d="M79.405 201.567H73.2969V207.675H79.405V201.567Z" fill="#005164"/>
            <path d="M97.7292 201.567H91.6211V207.675H97.7292V201.567Z" fill="#005164"/>
            <path d="M109.946 201.567H103.838V207.675H109.946V201.567Z" fill="#005164"/>
            <path d="M134.378 201.567H128.27V207.675H134.378V201.567Z" fill="#005164"/>
            <path d="M140.488 201.567H134.379V207.675H140.488V201.567Z" fill="#005164"/>
            <path d="M158.811 201.567H152.703V207.675H158.811V201.567Z" fill="#005164"/>
            <path d="M164.919 201.567H158.811V207.675H164.919V201.567Z" fill="#005164"/>
            <path d="M189.35 201.567H183.242V207.675H189.35V201.567Z" fill="#005164"/>
            <path d="M195.46 201.567H189.352V207.675H195.46V201.567Z" fill="#005164"/>
            <path d="M207.676 201.567H201.568V207.675H207.676V201.567Z" fill="#005164"/>
            <path d="M54.9733 207.676H48.8652V213.784H54.9733V207.676Z" fill="#005164"/>
            <path d="M91.6219 207.676H85.5137V213.784H91.6219V207.676Z" fill="#005164"/>
            <path d="M103.839 207.676H97.7305V213.784H103.839V207.676Z" fill="#005164"/>
            <path d="M116.053 207.676H109.945V213.784H116.053V207.676Z" fill="#005164"/>
            <path d="M134.378 207.676H128.27V213.784H134.378V207.676Z" fill="#005164"/>
            <path d="M158.811 207.676H152.703V213.784H158.811V207.676Z" fill="#005164"/>
            <path d="M189.35 207.676H183.242V213.784H189.35V207.676Z" fill="#005164"/>
            <path d="M195.46 207.676H189.352V213.784H195.46V207.676Z" fill="#005164"/>
            <path d="M213.784 207.676H207.676V213.784H213.784V207.676Z" fill="#005164"/>
            <path d="M219.891 207.676H213.783V213.784H219.891V207.676Z" fill="#005164"/>
            <path d="M73.2976 213.783H67.1895V219.891H73.2976V213.783Z" fill="#005164"/>
            <path d="M79.405 213.783H73.2969V219.891H79.405V213.783Z" fill="#005164"/>
            <path d="M91.6218 213.783H85.5137V219.891H91.6218V213.783Z" fill="#005164"/>
            <path d="M103.839 213.783H97.7305V219.891H103.839V213.783Z" fill="#005164"/>
            <path d="M109.946 213.783H103.838V219.891H109.946V213.783Z" fill="#005164"/>
            <path d="M116.053 213.783H109.945V219.891H116.053V213.783Z" fill="#005164"/>
            <path d="M128.27 213.783H122.162V219.891H128.27V213.783Z" fill="#005164"/>
            <path d="M146.594 213.783H140.486V219.891H146.594V213.783Z" fill="#005164"/>
            <path d="M152.704 213.783H146.596V219.891H152.704V213.783Z" fill="#005164"/>
            <path d="M171.028 213.783H164.92V219.891H171.028V213.783Z" fill="#005164"/>
            <path d="M177.135 213.783H171.027V219.891H177.135V213.783Z" fill="#005164"/>
            <path d="M183.243 213.783H177.135V219.891H183.243V213.783Z" fill="#005164"/>
            <path d="M189.35 213.783H183.242V219.891H189.35V213.783Z" fill="#005164"/>
            <path d="M207.674 213.783H201.566V219.891H207.674V213.783Z" fill="#005164"/>
            <path d="M213.784 213.783H207.676V219.891H213.784V213.783Z" fill="#005164"/>
            <path d="M61.0808 219.893H54.9727V226.001H61.0808V219.893Z" fill="#005164"/>
            <path d="M67.1901 219.893H61.082V226.001H67.1901V219.893Z" fill="#005164"/>
            <path d="M79.405 219.893H73.2969V226.001H79.405V219.893Z" fill="#005164"/>
            <path d="M103.839 219.893H97.7305V226.001H103.839V219.893Z" fill="#005164"/>
            <path d="M122.163 219.893H116.055V226.001H122.163V219.893Z" fill="#005164"/>
            <path d="M140.487 219.893H134.379V226.001H140.487V219.893Z" fill="#005164"/>
            <path d="M146.594 219.893H140.486V226.001H146.594V219.893Z" fill="#005164"/>
            <path d="M164.919 219.893H158.811V226.001H164.919V219.893Z" fill="#005164"/>
            <path d="M177.135 219.893H171.027V226.001H177.135V219.893Z" fill="#005164"/>
            <path d="M207.674 219.893H201.566V226.001H207.674V219.893Z" fill="#005164"/>
            <path d="M213.784 219.893H207.676V226.001H213.784V219.893Z" fill="#005164"/>
            <path d="M219.891 219.893H213.783V226.001H219.891V219.893Z" fill="#005164"/>
            <path d="M226.001 219.893H219.893V226.001H226.001V219.893Z" fill="#005164"/>
            <path d="M42.7568 0V14.5976V28.1592C42.7568 31.7896 42.7568 42.7567 42.7568 42.7567C42.7568 42.7567 32.6918 42.7567 28.3264 42.7567H0L0.00855135 14.5976C0.00855135 6.55034 6.48192 0 14.4432 0H28.3264H42.7568ZM36.3432 6.41351H14.4432C10.0205 6.41351 6.42207 10.0846 6.42207 14.5993L6.41522 36.3432H36.3432V6.41351Z"
                  fill="#005164"/>
            <path d="M183.242 6.10352e-05V14.5977V28.1593C183.242 31.7897 183.242 42.7568 183.242 42.7568C183.242 42.7568 193.307 42.7568 197.673 42.7568H225.999L225.99 14.5977C225.99 6.5504 219.517 6.10352e-05 211.556 6.10352e-05H197.673H183.242ZM189.656 6.41357H211.556C215.979 6.41357 219.577 10.0847 219.577 14.5994L219.584 36.3433H189.656V6.41357Z"
                  fill="#005164"/>
            <path d="M42.7568 226V211.402V197.841C42.7568 194.21 42.7568 183.243 42.7568 183.243C42.7568 183.243 32.6918 183.243 28.3264 183.243H0L0.00855135 211.402C0.00855135 219.45 6.48192 226 14.4432 226H28.3264H42.7568ZM36.3432 219.586H14.4432C10.0205 219.586 6.42207 215.915 6.42207 211.401L6.41522 189.657H36.3432V219.586Z"
                  fill="#005164"/>
            <path d="M30.5411 12.2168H12.2168V30.5411H30.5411V12.2168Z" fill="#005164"/>
            <path d="M213.784 12.2168H195.459V30.5411H213.784V12.2168Z" fill="#005164"/>
            <path d="M30.5411 195.46H12.2168V213.784H30.5411V195.46Z" fill="#005164"/>
        </g>
        <path fill-rule="evenodd" clip-rule="evenodd"
              d="M96.8617 97.0632C96.457 97.1361 88.5891 105.023 88.2572 105.689L88 106.204L88.0004 112.831C88.0007 119.27 88.0067 119.467 88.2089 119.799C88.3234 119.987 88.5461 120.193 88.7037 120.257C88.8946 120.335 90.0522 120.372 92.168 120.368C95.6998 120.361 95.9169 120.399 95.9218 121.014C95.9228 121.142 94.5038 122.628 92.066 125.054C89.9444 127.165 88.2085 128.916 88.2085 128.945C88.2085 128.974 90.8007 128.998 93.9689 128.998H99.7295L105.426 123.29C108.559 120.15 111.175 117.478 111.238 117.353C111.32 117.192 111.353 114.307 111.353 107.469C111.353 96.9799 111.375 97.3826 110.783 97.1125C110.579 97.0195 108.81 96.9916 103.816 97.0021C100.134 97.0099 97.0051 97.0374 96.8617 97.0632ZM122.613 97.0599C122.331 97.1068 114.707 104.726 114.189 105.478L113.907 105.887L113.881 112.673C113.853 119.976 113.838 119.752 114.403 120.172C114.678 120.376 114.821 120.385 117.892 120.373C120.492 120.364 121.148 120.39 121.384 120.512C122.027 120.845 121.966 120.923 117.82 125.081L113.965 128.946L119.716 128.973L125.467 129L131.088 123.343C134.266 120.145 136.773 117.539 136.855 117.35C136.975 117.071 137 115.389 137 107.398V97.7829L136.767 97.4434C136.639 97.2567 136.44 97.0784 136.324 97.0474C136.082 96.9822 123.006 96.9942 122.613 97.0599ZM97.0702 105.955C96.8668 106.158 96.8614 106.313 96.8471 112.289C96.8391 115.658 96.8427 118.603 96.8551 118.832C96.8792 119.277 97.0755 119.51 97.4266 119.51C97.5684 119.51 99.7761 117.369 104.079 113.06C110.839 106.289 110.794 106.341 110.328 105.919C110.155 105.762 109.545 105.746 103.708 105.746C97.4177 105.746 97.2742 105.751 97.0702 105.955ZM122.949 105.816C122.877 105.846 122.747 106.004 122.663 106.168C122.532 106.421 122.509 107.4 122.51 112.701C122.512 119.454 122.51 119.427 123.063 119.491C123.367 119.526 123.723 119.18 133.325 109.467C136.289 106.468 136.408 106.31 135.975 105.919C135.802 105.762 135.204 105.747 129.433 105.755C125.94 105.759 123.022 105.787 122.949 105.816Z"
              fill="#247B9E"/>
    </g>
    <defs>
        <clipPath id="clip0_350_1829">
            <rect width="226" height="226" fill="white"/>
        </clipPath>
    </defs>
</svg>
