<svg width="22" height="21" viewBox="0 0 22 21" fill="none" xmlns="http://www.w3.org/2000/svg">
    <path d="M11.0002 14.0001C10.1718 14.0001 9.50018 14.6717 9.50018 15.5001V15.5101C9.50018 16.3385 10.1718 17.0101 11.0002 17.0101H11.0102C11.8386 17.0101 12.5102 16.3385 12.5102 15.5101V15.5001C12.5102 14.6717 11.8386 14.0001 11.0102 14.0001H11.0002Z"
          fill="#B22F2F"/>
    <path d="M11.0002 6.50011C11.5525 6.50011 12.0002 6.94782 12.0002 7.50011V11.5001C12.0002 12.0524 11.5525 12.5001 11.0002 12.5001C10.4479 12.5001 10.0002 12.0524 10.0002 11.5001V7.50011C10.0002 6.94782 10.4479 6.50011 11.0002 6.50011Z"
          fill="#B22F2F"/>
    <path fill-rule="evenodd" clip-rule="evenodd"
          d="M8.32247 2.30059C9.43203 0.104229 12.5683 0.104231 13.6779 2.30059L20.9256 16.6474C21.9337 18.6428 20.4835 21.0001 18.2479 21.0001H3.75245C1.51688 21.0001 0.0667001 18.6428 1.07474 16.6474L8.32247 2.30059ZM11.8927 3.20241L19.1405 17.5492C19.4765 18.2143 18.9931 19.0001 18.2479 19.0001H3.75245C3.00726 19.0001 2.52387 18.2143 2.85988 17.5492L10.1076 3.20241C10.4775 2.47029 11.5229 2.47029 11.8927 3.20241Z"
          fill="#B22F2F"/>
</svg>
