<svg width="404" height="60" viewBox="0 0 404 60" fill="none" xmlns="http://www.w3.org/2000/svg">
    <rect x="1" y="1" width="402" height="58" rx="1" fill="url(#paint0_linear_40_72)"/>
    <rect x="1" y="1" width="402" height="58" rx="1" stroke="black" stroke-width="2"/>
    <path d="M40.6988 20.56H43.5468L53.7868 33.456H55.4508L65.3388 20.56H67.9308L51.4828 42H48.8908L53.2108 36.4L40.6988 20.56ZM80.69 20.336H81.65C89.33 20.336 92.978 22.32 92.978 25.968V26.288C92.978 28.336 91.57 29.68 89.522 30.416V31.248C91.986 31.92 93.426 33.36 93.426 35.92V36.24C93.426 40.336 88.754 42.224 81.65 42.224H80.69C73.714 42.224 68.69 40.336 68.69 33.904H71.186C71.186 39.024 75.09 40.368 80.754 40.368H81.714C87.282 40.368 90.93 38.96 90.93 35.984V35.696C90.93 33.04 88.722 31.984 84.594 31.984H76.914V30.16H84.562C87.314 30.16 90.482 29.296 90.482 26.608V26.288C90.482 23.568 87.922 22.192 81.65 22.192H80.69C75.538 22.192 71.442 23.696 71.442 28.08H68.946C68.946 22.416 74.066 20.336 80.69 20.336ZM97.2088 20.56H99.6727V30.128H118.137V20.56H120.601V42H118.137V32.176H99.6727V42H97.2088V20.56ZM135.836 20.56H139.452L151.804 42H149.308L145.468 35.312H129.852L126.044 42H123.644L135.836 20.56ZM136.956 22.832L130.94 33.392H144.348L138.268 22.832H136.956ZM154.834 20.56H157.298V38.544H158.226L176.146 20.56H178.962V42H176.53V24.016H175.57L157.65 42H154.834V20.56ZM162.418 14.704H164.146C164.146 16.464 165.266 17.232 166.802 17.232H167.25C168.722 17.232 169.906 16.464 169.906 14.704H171.57C171.57 17.2 169.906 18.448 167.25 18.448H166.77C164.114 18.448 162.418 17.2 162.418 14.704ZM191.615 20.56H214.687V42H212.223V22.576H194.079V42H191.615V20.56ZM219.178 20.56H241.13V22.512H221.61V30.256H239.466V32.08H221.61V40.048H241.29V42H219.178V20.56ZM245.334 20.56H260.054C265.494 20.56 268.15 22.48 268.15 26.512V27.44C268.15 31.664 265.494 33.52 260.054 33.52H247.798V42H245.334V20.56ZM247.798 22.576V31.504H259.798C263.574 31.504 265.654 30.48 265.654 27.376V26.576C265.654 23.632 263.574 22.576 259.798 22.576H247.798ZM272.146 20.56H287.922C292.626 20.56 294.866 22.32 294.866 25.712V26.288C294.866 28.528 293.554 29.84 291.922 30.608V31.376C294.034 32.08 295.474 33.488 295.474 35.952V36.624C295.474 39.888 293.394 42 288.082 42H272.146V20.56ZM274.546 22.384V30.352H287.506C290.642 30.352 292.402 28.88 292.402 26.672V26.128C292.402 23.824 291.09 22.384 287.506 22.384H274.546ZM274.546 31.984V40.176H287.506C291.602 40.176 293.01 38.672 293.01 36.272V35.76C293.01 33.264 291.026 31.984 287.506 31.984H274.546ZM325.411 20.56H327.843V42H325.411V20.56ZM299.459 20.56H301.923V28.784H314.755C319.555 28.784 322.179 30.896 322.179 34.864V35.856C322.179 39.92 319.555 42 314.787 42H299.459V20.56ZM301.923 30.8V39.984H314.339C317.827 39.984 319.683 38.64 319.683 35.76V34.896C319.683 32.112 317.827 30.8 314.339 30.8H301.923ZM332.334 20.56H336.206L346.254 32.4H347.854L357.838 20.56H361.518V42H359.086V23.568H357.966L348.238 35.12H345.486L335.854 23.568H334.67V42H332.334V20.56Z"
          fill="black"/>
    <defs>
        <linearGradient id="paint0_linear_40_72" x1="0" y1="30" x2="404" y2="30" gradientUnits="userSpaceOnUse">
            <stop stop-color="#A2E8FC"/>
            <stop offset="0.5" stop-color="#98B8BA"/>
            <stop offset="1" stop-color="#918675"/>
        </linearGradient>
    </defs>
</svg>
