<svg width="312" height="50" viewBox="0 0 312 50" fill="none" xmlns="http://www.w3.org/2000/svg">
    <path d="M1.5 2C1.5 1.44772 1.94772 1 2.5 1H309.5C310.052 1 310.5 1.44771 310.5 2V48C310.5 48.5523 310.052 49 309.5 49H2.5C1.94772 49 1.5 48.5523 1.5 48V2Z"
          fill="url(#paint0_linear_40_82)"/>
    <path d="M1.5 2C1.5 1.44772 1.94772 1 2.5 1H309.5C310.052 1 310.5 1.44771 310.5 2V48C310.5 48.5523 310.052 49 309.5 49H2.5C1.94772 49 1.5 48.5523 1.5 48V2Z"
          stroke="black" stroke-width="2"/>
    <path d="M42.2386 17.92H59.5426V34H57.6946V19.432H44.0866V34H42.2386V17.92ZM72.3905 17.752H73.4465C78.9905 17.752 83.2865 20.584 83.2865 25.528V26.392C83.2865 31.48 78.9905 34.168 73.4465 34.168H72.3905C66.7985 34.168 62.4545 31.48 62.4545 26.392V25.528C62.4545 20.584 66.7985 17.752 72.3905 17.752ZM72.3905 19.36C67.6865 19.36 64.3265 21.592 64.3265 25.528V26.392C64.3265 30.448 67.6865 32.56 72.3905 32.56H73.3505C78.0785 32.56 81.4145 30.448 81.4145 26.392V25.528C81.4145 21.592 78.0785 19.36 73.3505 19.36H72.3905ZM89.5117 19.432V20.632C89.5117 28.336 89.0077 30.424 87.9517 32.488H101.656V19.432H89.5117ZM87.8077 17.92H103.48V32.488H105.808V37.36H104.056V34H85.9597V37.36H84.2077V32.488H86.1037C87.2797 30.376 87.8077 28.24 87.8077 20.632V17.92ZM107.84 17.92H125.144V34H123.296V19.432H109.688V34H107.84V17.92ZM128.512 17.92H130.36V31.408H131.056L144.496 17.92H146.608V34H144.784V20.512H144.064L130.624 34H128.512V17.92ZM159.053 17.752H159.941C165.629 17.752 169.445 20.032 169.445 24.256V24.4H167.573V24.256C167.573 21.184 164.765 19.36 159.941 19.36H159.053C154.277 19.36 151.373 21.232 151.373 25.312V26.44C151.373 30.64 154.277 32.56 159.053 32.56H159.941C164.741 32.56 167.645 30.592 167.645 27.736V27.592H169.517V27.736C169.517 31.72 165.629 34.168 159.941 34.168H159.053C153.437 34.168 149.501 31.744 149.501 26.44V25.312C149.501 20.08 153.437 17.752 159.053 17.752ZM179.139 17.92H181.851L191.115 34H189.243L186.363 28.984H174.651L171.795 34H169.995L179.139 17.92ZM179.979 19.624L175.467 27.544H185.523L180.963 19.624H179.979ZM188.627 17.92H208.163V19.432H199.307V34H197.483V19.432H188.627V17.92ZM210.45 17.92H212.298V24.088H221.922C225.522 24.088 227.49 25.672 227.49 28.648V29.392C227.49 32.44 225.522 34 221.946 34H210.45V17.92ZM212.298 25.6V32.488H221.61C224.226 32.488 225.618 31.48 225.618 29.32V28.672C225.618 26.584 224.226 25.6 221.61 25.6H212.298ZM239.514 17.752H240.402C246.09 17.752 249.906 20.032 249.906 24.256V24.4H248.034V24.256C248.034 21.184 245.226 19.36 240.402 19.36H239.514C234.738 19.36 231.834 21.232 231.834 25.312V26.44C231.834 30.64 234.738 32.56 239.514 32.56H240.402C245.202 32.56 248.106 30.592 248.106 27.736V27.592H249.978V27.736C249.978 31.72 246.09 34.168 240.402 34.168H239.514C233.898 34.168 229.962 31.744 229.962 26.44V25.312C229.962 20.08 233.898 17.752 239.514 17.752ZM258.328 17.92H269.728V34H267.904V27.52H258.664L253.456 34H251.44L256.72 27.424C254.056 27.064 252.328 25.768 252.328 23.08V22.432C252.328 19.168 254.776 17.92 258.328 17.92ZM258.328 19.384C255.904 19.384 254.2 20.152 254.2 22.48V23.032C254.2 25.312 255.904 26.032 258.328 26.032H267.904V19.384H258.328Z"
          fill="black"/>
    <defs>
        <linearGradient id="paint0_linear_40_82" x1="0.5" y1="25" x2="311.5" y2="25" gradientUnits="userSpaceOnUse">
            <stop stop-color="#A2E8FC"/>
            <stop offset="0.5" stop-color="#98B8BA"/>
            <stop offset="1" stop-color="#918675"/>
        </linearGradient>
    </defs>
</svg>
