<svg width="162" height="138" viewBox="0 0 162 138" fill="none" xmlns="http://www.w3.org/2000/svg">
    <g opacity="0.3">
        <path d="M63.1787 41.8H85.6399L76.2811 65.48H53.8199L63.1787 41.8Z" fill="#A2E8FC"/>
        <path d="M-4.37903 16.6399H17.5598L8.41862 39.5799H-13.5202L-4.37903 16.6399Z" fill="#A2E8FC"/>
        <path d="M101.659 69.9199H124.12L114.761 93.5999H92.2998L101.659 69.9199Z" fill="#A2E8FC"/>
        <path d="M10.4211 61.04H32.3599L23.2187 83.98H1.27991L10.4211 61.04Z" fill="#A2E8FC"/>
        <path d="M116.459 115.06H138.92L129.561 138H107.1L116.459 115.06Z" fill="#A2E8FC"/>
        <path d="M33.5787 -8.52002H56.0398L46.681 14.42H24.2198L33.5787 -8.52002Z" fill="#A2E8FC"/>
        <path d="M139.399 44.76H161.86L152.501 68.44H130.04L139.399 44.76Z" fill="#A2E8FC"/>
        <path d="M116.459 7.02002H138.92L129.561 29.96H107.1L116.459 7.02002Z" fill="#A2E8FC"/>
    </g>
</svg>
